<svg width="36" height="41" viewBox="0 0 36 41" fill="none" xmlns="http://www.w3.org/2000/svg">
<path d="M30.903 2.84375C30.0495 2.84375 29.2494 3.07414 28.5593 3.47437V1.67188C28.5593 1.02469 28.0346 0.5 27.3874 0.5H8.63742C7.99016 0.5 7.46547 1.02469 7.46547 1.67188V3.48867C6.76992 3.07953 5.96063 2.84375 5.09695 2.84375C2.51227 2.84375 0.409454 4.94656 0.409454 7.53125C0.409454 9.50273 0.993673 11.4077 2.09891 13.0402C3.98047 15.8193 6.3007 16.5405 8.22063 17.3084C9.32766 20.0653 11.5663 22.2502 14.3589 23.2846L13.4948 28.7812H13.3249C11.3864 28.7812 9.8093 30.3584 9.8093 32.2969V38.1562H8.63742C7.99023 38.1562 7.46555 38.6809 7.46555 39.3281C7.46555 39.9753 7.99023 40.5 8.63742 40.5H27.3874C28.0346 40.5 28.5593 39.9753 28.5593 39.3281C28.5593 38.6809 28.0346 38.1562 27.3874 38.1562H26.2155V32.2969C26.2155 30.3584 24.6384 28.7812 22.6999 28.7812H22.5301L21.666 23.2847C24.4627 22.2487 26.7038 20.0591 27.8092 17.2966C29.6229 16.5711 32.0003 15.8478 33.9012 13.0402C35.0064 11.4077 35.5906 9.50266 35.5906 7.53125C35.5905 4.94656 33.4877 2.84375 30.903 2.84375ZM7.4568 14.4787C4.59945 13.3357 2.7532 10.6087 2.7532 7.53125C2.7532 6.23891 3.80461 5.1875 5.09695 5.1875C6.3893 5.1875 7.4407 6.23891 7.4407 7.53125C7.4407 7.61367 7.44938 7.69398 7.46555 7.77156V13.3906C7.46555 13.7673 7.48578 14.1392 7.52453 14.5058L7.4568 14.4787ZM23.8718 38.1562H12.153V35.8125H23.8718V38.1562ZM22.6999 31.125C23.3461 31.125 23.8718 31.6507 23.8718 32.2969V33.4688H12.153V32.2969C12.153 31.6507 12.6788 31.125 13.3249 31.125C13.9607 31.125 21.2089 31.125 22.6999 31.125ZM15.8673 28.7812L16.6427 23.8487C17.0912 23.9071 17.5483 23.9375 18.0124 23.9375C18.4766 23.9375 18.9337 23.907 19.3821 23.8487L20.1576 28.7812H15.8673ZM26.2155 13.3906C26.2155 17.9138 22.5356 21.5938 18.0124 21.5938C13.4892 21.5938 9.8093 17.9138 9.8093 13.3906V7.53125H26.2155V13.3906ZM26.2155 5.1875H9.8093V2.84375H26.2155V5.1875ZM28.5431 14.4787L28.5015 14.4953C28.5395 14.1322 28.5592 13.7637 28.5592 13.3906V7.53125C28.5593 6.23891 29.6107 5.1875 30.903 5.1875C32.1954 5.1875 33.2468 6.23891 33.2468 7.53125C33.2468 10.6087 31.4005 13.3358 28.5431 14.4787Z" fill="#3A3A3A"/>
</svg>
