<svg width="40" height="39" viewBox="0 0 40 39" fill="none" xmlns="http://www.w3.org/2000/svg">
<path d="M37.8573 13.6741C37.3295 12.0397 37.5545 9.58637 36.1827 7.69207C34.8 5.78286 32.3952 5.2402 31.0373 4.24707C29.6938 3.26442 28.4438 1.12606 26.1837 0.388559C23.9873 -0.32816 21.7414 0.644418 20 0.644418C18.2588 0.644418 16.013 -0.328394 13.8163 0.388481C11.5566 1.12582 10.3056 3.26465 8.96289 4.24684C7.60648 5.23879 5.19992 5.78293 3.8175 7.69184C2.4468 9.58457 2.66953 12.0436 2.14266 13.674C1.64125 15.2258 0 17.0882 0 19.5001C0 21.9135 1.63938 23.7687 2.14266 25.3261C2.67047 26.9605 2.44547 29.4139 3.81734 31.3082C5.19992 33.2175 7.60461 33.76 8.96266 34.7532C10.306 35.7357 11.5562 37.8743 13.8163 38.6117C16.0112 39.3279 18.2606 38.3558 20 38.3558C21.737 38.3558 23.9916 39.3269 26.1837 38.6118C28.4434 37.8744 29.6937 35.7361 31.0371 34.7534C32.3935 33.7614 34.8001 33.2173 36.1825 31.3084C37.5533 29.4156 37.3304 26.9568 37.8573 25.3262C38.3587 23.7743 40 21.9119 40 19.5001C40 17.0869 38.361 15.2322 37.8573 13.6741ZM34.8838 24.3653C34.2686 26.2696 34.4298 28.4007 33.6516 29.4753C32.863 30.5641 30.7913 31.0614 29.1926 32.2308C27.6114 33.3871 26.5032 35.2202 25.2143 35.6407C23.9949 36.0387 22.0077 35.2307 20.0001 35.2307C17.9777 35.2307 16.011 36.0404 14.7858 35.6407C13.497 35.2202 12.3904 33.3884 10.8075 32.2307C9.21828 31.0685 7.13469 30.5609 6.34836 29.4751C5.57273 28.4042 5.72781 26.2582 5.11633 24.3654C4.51695 22.5107 3.125 20.9049 3.125 19.5001C3.125 18.094 4.5157 16.4936 5.11617 14.635C5.73141 12.7307 5.57023 10.5994 6.34836 9.52497C7.13648 8.43684 9.20984 7.93786 10.8075 6.76942C12.3937 5.60934 13.4949 3.78067 14.7856 3.3595C16.004 2.962 17.9977 3.76957 19.9999 3.76957C22.0259 3.76957 23.9877 2.95926 25.2142 3.3595C26.5028 3.77997 27.6104 5.61247 29.1926 6.7695C30.7816 7.93176 32.8653 8.43934 33.6516 9.52504C34.4274 10.5962 34.2715 12.74 34.8837 14.6348V14.6349C35.483 16.4895 36.875 18.0954 36.875 19.5001C36.875 20.9063 35.4843 22.5066 34.8838 24.3653ZM27.1987 14.4849C27.8089 15.0951 27.8089 16.0844 27.1987 16.6946L19.3779 24.5154C18.7677 25.1256 17.7783 25.1255 17.1681 24.5154L12.8014 20.1486C12.1912 19.5384 12.1911 18.5491 12.8013 17.9389C13.4116 17.3288 14.401 17.3287 15.011 17.9389L18.273 21.2008L24.9888 14.485C25.5991 13.8747 26.5884 13.8747 27.1987 14.4849Z" fill="#3A3A3A"/>
</svg>
